<?xml version="1.0" encoding="iso-8859-1"?>
<!-- Generator: Adobe Illustrator 19.0.0, SVG Export Plug-In . SVG Version: 6.00 Build 0)  -->
<svg version="1.1" id="Capa_1" xmlns="http://www.w3.org/2000/svg" xmlns:xlink="http://www.w3.org/1999/xlink" x="0px" y="0px"
	 viewBox="0 0 512.001 512.001" style="enable-background:new 0 0 512.001 512.001;" xml:space="preserve">
<path style="fill:#FD003A;" d="M232.236,343.302l-35.426,35.426c-5.94,5.94-15.273,5.94-21.213,0l-42.426-42.426
	c-5.94-5.94-5.94-15.273,0-21.213l35.426-35.426l37.971-4.455l24.82,24.82L232.236,343.302z"/>
<path style="fill:#BC000E;" d="M231.388,300.028l0.848,43.274l-35.426,35.426c-5.94,5.94-15.273,5.94-21.213,0l-21.001-21.001
	l67.245-67.246L231.388,300.028z"/>
<path style="fill:#FD3C65;" d="M285.269,269.056l-42.426-42.426c-5.94-5.94-15.273-5.94-21.213,0l-53.033,53.033l63.64,63.64
	l53.033-53.033C291.21,284.329,291.21,274.996,285.269,269.056z"/>
<path style="fill:#FD003A;" d="M285.269,290.269l-53.033,53.033l-31.607-31.607l63.64-63.64l21.001,21.001
	C291.21,274.996,291.21,284.329,285.269,290.269z"/>
<path style="fill:#57555C;" d="M368.637,276.057l-86.55,17.395l-63.64-63.64l17.395-86.55c2.758-14.214,12.092-26.093,25.456-32.243
	L490.82,1.095c5.939-2.547,12.303-0.425,16.333,4.031c4.243,4.243,6.365,10.182,3.606,15.909L400.88,250.601
	C394.73,263.965,382.851,273.299,368.637,276.057z"/>
<g>
	<path style="fill:#3C3A41;" d="M368.637,276.057l-86.55,17.395l-31.607-31.607L507.153,5.125
		c4.243,4.243,6.365,10.182,3.606,15.909L400.88,250.601C394.73,263.965,382.851,273.299,368.637,276.057z"/>
	<path style="fill:#3C3A41;" d="M327.696,205.417l-66.822,66.822l-21.213-21.213l66.822-66.822c5.94-5.94,15.273-5.94,21.213,0
		l0.212,0.212C333.635,190.567,333.636,199.476,327.696,205.417z"/>
</g>
<path style="fill:#2B292C;" d="M327.696,205.417l-66.822,66.822l-10.394-10.394l77.429-77.429
	C333.635,190.567,333.636,199.476,327.696,205.417z"/>
<path style="fill:#57555C;" d="M179.416,332.908c-4.668-4.668-10.183-9.334-15.91-13.364c-35.002-23.546-82.095-23.546-117.097,0
	c-54.942,37.548-62.367,114.975-15.485,161.857c4.666,4.666,9.971,9.121,15.485,12.94c35.002,23.546,82.095,23.546,117.097,0
	C219.508,456.157,224.811,378.728,179.416,332.908z M136.777,438.762c-17.607,17.607-45.608,17.607-63.427,0.212l-0.212-0.212
	c-17.607-17.607-17.607-46.032,0-63.64c17.607-17.607,46.032-17.607,63.64,0l0.212,0.212
	C154.384,393.154,154.384,421.154,136.777,438.762z"/>
<path style="fill:#3C3A41;" d="M179.416,332.908l-42.426,42.426c17.395,17.82,17.395,45.82-0.212,63.427
	s-45.608,17.607-63.427,0.212l-42.426,42.426c4.666,4.666,9.971,9.121,15.485,12.94c35.002,23.546,82.095,23.546,117.097,0
	C219.508,456.157,224.811,378.728,179.416,332.908z"/>
<g>
</g>
<g>
</g>
<g>
</g>
<g>
</g>
<g>
</g>
<g>
</g>
<g>
</g>
<g>
</g>
<g>
</g>
<g>
</g>
<g>
</g>
<g>
</g>
<g>
</g>
<g>
</g>
<g>
</g>
</svg>
